<svg width="42" height="42" viewBox="0 0 42 42" fill="none" xmlns="http://www.w3.org/2000/svg">
<g filter="url(#filter0_d_792_7)">
<circle cx="21" cy="21" r="12" fill="#181411"/>
</g>
<path d="M21 19.5551L16.8027 23.7072C16.6054 23.9024 16.3543 24 16.0493 24C15.7444 24 15.4933 23.9024 15.296 23.7072C15.0987 23.512 15 23.2636 15 22.962C15 22.6603 15.0987 22.4119 15.296 22.2167L20.2466 17.3194C20.4619 17.1065 20.713 17 21 17C21.287 17 21.5381 17.1065 21.7534 17.3194L26.704 22.2167C26.9013 22.4119 27 22.6603 27 22.962C27 23.2636 26.9013 23.512 26.704 23.7072C26.5067 23.9024 26.2556 24 25.9507 24C25.6457 24 25.3946 23.9024 25.1973 23.7072L21 19.5551Z" fill="white"/>
<defs>
<filter id="filter0_d_792_7" x="0" y="0" width="42" height="42" filterUnits="userSpaceOnUse" color-interpolation-filters="sRGB">
<feFlood flood-opacity="0" result="BackgroundImageFix"/>
<feColorMatrix in="SourceAlpha" type="matrix" values="0 0 0 0 0 0 0 0 0 0 0 0 0 0 0 0 0 0 127 0" result="hardAlpha"/>
<feMorphology radius="1" operator="dilate" in="SourceAlpha" result="effect1_dropShadow_792_7"/>
<feOffset/>
<feGaussianBlur stdDeviation="4"/>
<feComposite in2="hardAlpha" operator="out"/>
<feColorMatrix type="matrix" values="0 0 0 0 1 0 0 0 0 1 0 0 0 0 1 0 0 0 0.28 0"/>
<feBlend mode="normal" in2="BackgroundImageFix" result="effect1_dropShadow_792_7"/>
<feBlend mode="normal" in="SourceGraphic" in2="effect1_dropShadow_792_7" result="shape"/>
</filter>
</defs>
</svg>
