<svg width="319" height="32" viewBox="0 0 319 32" fill="none" xmlns="http://www.w3.org/2000/svg">
<path d="M298.786 1.63059C298.71 2.53222 298.594 3.29957 298.518 3.33794C298.441 3.39549 298.403 3.77916 298.441 4.2012C298.479 4.64243 298.422 4.98773 298.307 4.98773C298.192 4.98773 298.115 4.60406 298.115 4.12447C298.115 3.22284 297.827 2.93508 297.674 3.68324C297.635 3.93263 297.578 3.58732 297.559 2.9159C297.539 1.74569 297.328 1.40039 297.041 2.05263C296.964 2.24447 296.887 2.45549 296.887 2.53222C296.868 2.58977 296.81 2.72406 296.734 2.80079C296.638 2.87753 296.599 3.24202 296.599 3.62569L296.638 4.3163L296.772 3.54896L296.906 2.78161L296.945 3.58732C296.945 4.02855 296.887 4.43141 296.791 4.48896C296.695 4.56569 296.542 4.96855 296.465 5.42896L296.331 6.23467L296.139 5.56324L295.947 4.89181L295.813 5.46732C295.717 5.92773 295.659 5.77426 295.525 4.64243C295.448 3.89426 295.314 3.2612 295.237 3.2612C295.026 3.2612 294.854 4.98773 294.834 7.48161C294.815 8.69018 294.758 9.41916 294.719 9.11222C294.681 8.7861 294.566 8.1914 294.432 7.76936C294.24 7.05957 294.201 7.04038 294.086 7.48161C293.971 7.90365 293.933 7.86528 293.818 7.1363C293.626 6.11957 293.319 6.0812 293.319 7.07875C293.319 7.50079 293.204 7.92283 293.031 8.05712C292.878 8.1914 292.743 8.45997 292.743 8.65181C292.743 8.86283 292.609 9.0163 292.456 9.0163C292.283 9.0163 292.168 9.20814 292.168 9.51508C292.168 9.78365 291.957 10.2824 291.707 10.6085C291.439 10.9539 291.17 11.4718 291.094 11.7979C290.94 12.3543 290.94 12.3543 290.806 11.5102C290.729 11.0306 290.652 9.28487 290.652 7.61589C290.633 4.83426 290.614 4.58488 290.307 4.64243C290.115 4.68079 289.943 4.87263 289.923 5.08365C289.866 5.46732 289.866 5.46732 290.058 5.08365C290.211 4.75753 290.23 4.79589 290.154 5.27549C290.115 5.58243 290.019 6.27304 289.943 6.81018C289.866 7.32814 289.655 7.9612 289.463 8.21059C289.271 8.47916 289.175 8.7861 289.252 8.97793C289.348 9.22732 289.405 9.16977 289.501 8.72855C289.674 7.92283 289.693 8.74773 289.501 9.68773L289.367 10.4551L289.214 9.68773C289.06 8.82446 288.792 8.28732 288.619 8.47916C288.542 8.53671 288.427 9.0163 288.35 9.53426C288.235 10.3016 288.178 10.033 288.082 7.86528C287.852 3.64488 287.717 2.30202 287.545 2.30202C287.449 2.30202 287.372 2.55141 287.372 2.87753C287.372 3.18447 287.314 3.45304 287.238 3.45304C287.142 3.45304 287.065 3.99018 287.046 4.62324C287.027 5.3714 286.892 5.92773 286.701 6.13875C286.547 6.31141 286.413 6.61834 286.432 6.82936C286.451 7.11712 286.49 7.09793 286.605 6.71426L286.758 6.23467L286.777 6.75263C286.796 7.05957 286.739 7.28977 286.643 7.28977C286.566 7.28977 286.49 7.57753 286.49 7.90365C286.49 8.24895 286.451 8.7861 286.413 9.11222C286.355 9.59181 286.336 9.55344 286.24 8.84365C286.048 7.34732 285.703 7.69263 285.53 9.53426C285.396 11.0306 285.358 11.1265 285.262 10.3592C285.127 9.15059 284.936 9.74528 284.763 11.913C284.686 12.9106 284.61 13.6204 284.571 13.5245C284.533 13.4094 284.379 11.3375 284.207 8.92038C284.034 6.48406 283.842 4.46977 283.804 4.43141C283.765 4.39304 283.612 4.46977 283.439 4.60406C283.228 4.77671 283.152 5.21794 283.152 6.13875C283.152 6.86773 283.056 7.48161 282.96 7.51998C282.845 7.55834 282.691 8.22977 282.634 9.0163C282.499 10.3592 282.499 10.3975 282.365 9.68773C282.269 9.26569 282.212 7.51998 282.212 5.79345C282.192 4.0861 282.154 2.68569 282.096 2.68569C281.674 2.68569 281.521 3.24202 281.579 4.54651C281.636 5.60161 281.579 6.0812 281.348 6.42651C281.176 6.67589 281.041 7.19385 281.041 7.55834C281.041 7.92283 280.965 8.28732 280.85 8.34487C280.754 8.40242 280.639 9.20814 280.639 10.129L280.6 11.7979L280.447 9.78365C280.37 8.671 280.236 6.82936 280.178 5.69753C280.044 3.52977 279.833 3.18447 279.411 4.43141L279.181 5.08365L279.065 4.3163C279.008 3.89426 278.893 3.01181 278.816 2.34039C278.759 1.68814 278.624 1.151 278.528 1.151C278.432 1.151 278.336 1.78406 278.336 2.53222C278.317 3.81753 278.298 4.12447 278.183 4.41222C278.164 4.46977 278.125 5.54406 278.087 6.81018C277.953 10.9922 277.972 10.8004 277.665 9.20814C277.281 7.2514 277.262 7.21304 276.936 7.51998C276.783 7.65426 276.706 7.8461 276.763 7.92283C276.821 8.01875 276.783 8.88202 276.706 9.8412C276.591 11.1841 276.533 11.4334 276.437 10.9347L276.322 10.2632L276.188 10.9155C276.111 11.2608 276.054 12.009 276.054 12.5461C276.054 14.1192 275.286 14.7714 274.999 13.4477C274.922 13.1216 274.73 12.853 274.5 12.7955C274.193 12.7187 274.135 12.7571 274.231 13.0065C274.308 13.2175 274.289 13.2559 274.174 13.1408C273.867 12.8147 273.521 11.5294 273.675 11.2992C273.752 11.1457 273.732 11.1265 273.598 11.2032C273.464 11.28 273.368 11.2608 273.368 11.1649C273.368 11.069 273.195 10.9347 272.984 10.8771C272.754 10.8196 272.601 10.6085 272.601 10.3783C272.601 10.1481 272.505 9.97548 272.39 9.97548C272.294 9.97548 272.255 9.87957 272.313 9.78365C272.37 9.66855 272.351 9.59181 272.236 9.59181C272.14 9.59181 272.006 9.78365 271.968 10.0139C271.891 10.3975 271.891 10.3975 271.852 9.93712C271.814 9.20814 271.507 9.11222 271.2 9.7261C270.951 10.1865 270.912 10.2057 270.816 9.86038C270.759 9.66855 270.548 8.34487 270.375 6.94447C269.896 3.3763 269.742 3.20365 269.205 5.71671C269.032 6.56079 268.802 7.21304 268.706 7.15549C268.63 7.09793 268.591 6.94447 268.649 6.791C268.706 6.63753 268.649 6.57998 268.495 6.63753C268.342 6.69508 268.169 7.21304 268.092 7.82691C267.996 8.59426 267.901 8.80528 267.805 8.55589C267.69 8.1914 267.67 8.1914 267.574 8.59426C267.498 8.88202 267.536 9.0163 267.728 9.0163C267.881 9.0163 267.939 9.1314 267.862 9.32324C267.766 9.57263 267.709 9.57263 267.574 9.36161C267.421 9.16977 267.363 9.16977 267.287 9.36161C267.248 9.47671 267.133 9.55344 267.056 9.51508C266.98 9.45753 266.922 9.74528 266.903 10.129C266.903 10.5126 266.845 11.0498 266.788 11.3183C266.75 11.5869 266.692 11.9706 266.654 12.1816C266.634 12.3926 266.366 10.8004 266.059 8.63263C265.771 6.46487 265.522 4.68079 265.503 4.64243C265.503 4.62324 265.426 4.60406 265.311 4.60406C265.215 4.60406 265.119 4.77671 265.119 4.98773C265.119 5.19875 265.061 5.3714 264.985 5.3714C264.889 5.3714 264.812 6.04283 264.774 6.86773C264.754 7.67344 264.659 8.36406 264.582 8.40242C264.486 8.42161 264.448 8.69018 264.505 8.99712C264.543 9.30406 264.486 9.70691 264.371 9.91793C264.256 10.1098 264.16 10.1481 264.16 10.0139C264.16 9.45753 263.795 9.8412 263.68 10.551C263.603 10.973 263.469 11.3567 263.373 11.4334C263.277 11.491 263.239 11.6061 263.277 11.6828C263.335 11.7596 263.316 12.0857 263.22 12.3926C263.124 12.7571 263.028 11.8363 262.932 9.59181C262.836 7.75018 262.721 6.15794 262.663 6.06202C262.491 5.75508 262.261 6.56079 262.261 7.59671C262.241 8.22977 262.145 8.671 261.954 8.82446C261.8 8.95875 261.685 9.34242 261.685 9.66855L261.723 10.2632L261.858 9.59181L261.992 8.92038L262.03 9.63018C262.03 10.0139 261.992 10.4743 261.934 10.6277C261.819 10.9155 261.781 10.9155 261.551 10.6085C261.321 10.2824 261.282 10.3208 261.033 10.9347C260.879 11.2992 260.707 11.7404 260.668 11.8939C260.572 12.22 260.4 10.5894 260.208 7.42406C260.131 6.29222 260.054 5.3714 260.016 5.3714C259.748 5.3714 259.172 6.10038 259.191 6.42651C259.21 6.75263 259.23 6.73345 259.364 6.33059L259.517 5.851L259.536 6.36896C259.556 6.67589 259.46 6.9061 259.345 6.9061C259.249 6.9061 259.21 7.00202 259.268 7.09793C259.345 7.21304 259.287 8.09549 259.153 9.05467C258.923 10.5702 258.884 10.7236 258.75 10.1865C258.539 9.39997 258.309 9.43834 257.963 10.3016L257.676 11.0306L257.522 10.2632C257.445 9.8412 257.369 8.88202 257.369 8.13385C257.35 7.36651 257.292 6.84855 257.234 6.94447C257.158 7.05957 257.081 7.04038 257.023 6.88692C256.832 6.36896 256.697 6.84855 256.39 9.20814C256.007 12.2392 255.93 12.4118 255.604 11.2224C255.45 10.6853 255.374 10.1481 255.431 10.0139C255.489 9.87957 255.45 9.80283 255.354 9.87957C255.259 9.93712 255.124 9.86038 255.067 9.74528C255.009 9.55344 254.894 9.59181 254.702 9.82202C254.453 10.129 254.414 10.129 254.223 9.68773C253.877 8.93957 253.513 9.11222 253.052 10.2057C252.803 10.8004 252.573 11.1265 252.477 11.0114C252.17 10.7045 251.268 7.50079 251.422 7.2514C251.499 7.11712 251.479 7.09793 251.345 7.17467C251.211 7.2514 251.115 7.21304 251.115 7.09793C251.115 6.71426 250.252 6.98283 250.213 7.38569L250.156 7.76936L250.348 7.38569C250.559 6.96365 250.578 6.81018 250.156 9.59181C249.868 11.5294 249.83 11.6253 249.388 11.6253C249.043 11.6253 249.005 11.491 249.005 10.129C249.005 9.32324 248.928 8.61345 248.832 8.55589C248.621 8.42161 248.429 8.86283 248.41 9.55344L248.391 10.0714L248.218 9.59181C248.084 9.20814 248.065 9.24651 248.141 9.8412C248.218 10.5126 248.007 12.1816 247.739 13.1024C247.681 13.2751 247.547 13.371 247.432 13.3134C247.316 13.2367 247.067 13.3902 246.875 13.6396C246.549 14.0808 246.53 14.0808 246.146 13.7355C245.897 13.5053 245.59 13.4285 245.321 13.4861C244.842 13.6012 244.132 13.1983 244.362 12.949C244.439 12.8722 244.266 12.949 243.979 13.1216C243.461 13.4669 243.058 13.4094 243.058 12.9873C243.058 12.853 243.134 12.8722 243.25 13.0449C243.384 13.2751 243.461 13.2751 243.633 13.0832C243.729 12.9681 243.768 12.8914 243.71 12.949C243.633 13.0065 243.461 12.949 243.307 12.8339C243.173 12.7187 243.058 12.6804 243.058 12.7571C243.058 12.8339 242.923 12.7955 242.77 12.6612C242.617 12.5269 242.54 12.3543 242.597 12.2583C242.655 12.1624 242.617 12.0857 242.501 12.0857C242.405 12.0857 242.271 12.2392 242.233 12.4118C242.175 12.6612 242.137 12.642 242.118 12.3159C242.099 11.9514 242.022 11.8939 241.715 11.9898C241.427 12.0857 241.331 12.0281 241.331 11.7212C241.331 11.5102 241.216 11.2608 241.063 11.1841C240.909 11.1073 240.756 10.8196 240.698 10.551C240.621 10.2632 240.602 10.34 240.641 10.7812C240.66 11.1649 240.602 11.4334 240.525 11.3951C240.449 11.3375 240.372 11.0114 240.372 10.6469C240.372 10.0139 239.988 9.49589 239.835 9.93712C239.797 10.0714 239.681 10.129 239.605 10.0714C239.509 10.0139 239.374 10.0714 239.298 10.1865C239.221 10.34 239.24 10.3592 239.374 10.2824C239.701 10.0906 239.643 10.34 239.221 11.1265C238.78 11.9706 238.722 11.8363 238.454 9.0163C238.319 7.80773 238.204 6.791 238.166 6.75263C237.974 6.54161 237.303 7.17467 237.322 7.53916C237.341 7.94202 237.341 7.94202 237.514 7.48161C237.61 7.15549 237.629 7.34732 237.552 8.05712C237.494 8.65181 237.341 9.18896 237.188 9.26569C237.034 9.34242 236.919 9.61099 236.938 9.8412C236.957 10.2441 236.977 10.2249 237.111 9.78365C237.245 9.36161 237.264 9.34242 237.283 9.70691C237.303 9.93712 237.168 10.2249 237.015 10.3592C236.861 10.4934 236.727 10.7428 236.746 10.9155C236.746 11.1457 236.785 11.1265 236.919 10.8387C237.072 10.4743 237.092 10.4743 237.092 10.8771C237.111 11.3759 236.804 11.6253 236.65 11.2224C236.497 10.8004 236.19 10.8771 235.902 11.4334C235.672 11.8939 235.634 11.7979 235.308 9.93712C235.135 8.84365 234.924 7.80773 234.885 7.61589C234.732 7.1363 234.425 7.21304 234.425 7.75018C234.425 7.99957 234.291 8.30651 234.137 8.44079C233.984 8.57508 233.85 8.82446 233.869 8.99712C233.869 9.22732 233.907 9.22732 234.061 8.92038C234.272 8.45997 234.233 8.74773 233.715 11.4143L233.389 13.1408L233.121 12.4118C232.794 11.5677 232.564 11.5102 232.296 12.22C231.989 13.0257 231.528 13.9465 231.624 13.6012C231.682 13.3518 231.624 13.3134 231.337 13.371C231.125 13.4285 230.991 13.5245 231.049 13.5628C231.087 13.6204 231.049 13.889 230.953 14.1767C230.742 14.7522 230.09 15.1551 229.341 15.1551C228.996 15.1551 228.862 15.251 228.862 15.5387C228.862 15.8265 228.996 15.9224 229.341 15.9224C230.205 15.9224 230.78 16.3253 231.01 17.1118C231.125 17.5147 231.337 17.8408 231.471 17.8408C231.624 17.8408 231.682 17.7065 231.605 17.4955C231.528 17.3036 231.567 17.2269 231.663 17.3228C231.759 17.4187 231.97 17.8792 232.123 18.3587C232.488 19.4906 232.794 19.5865 233.101 18.6657C233.332 17.9559 233.351 17.9559 233.485 18.4163C233.562 18.6849 233.619 19.0685 233.619 19.2796C233.619 19.5865 233.6 19.6057 233.523 19.3179C233.485 19.1453 233.351 18.9918 233.255 18.9918C233.044 18.9918 233.351 19.6632 233.658 19.8551C233.773 19.9126 233.85 20.162 233.83 20.3922C233.811 20.7759 233.792 20.7759 233.658 20.3347C233.543 19.951 233.504 19.9318 233.504 20.2387C233.504 20.4498 233.581 20.8334 233.658 21.102C233.792 21.5049 233.811 21.524 233.85 21.1979C233.869 20.9869 234.003 21.3322 234.157 21.9653C234.444 23.2698 234.483 23.6726 234.233 23.1163C234.118 22.8477 234.061 22.8285 234.061 23.0204C234.041 23.193 234.214 23.4616 234.406 23.6343C234.847 23.9987 234.79 24.133 235.308 21.1404C235.538 19.7783 235.691 19.2604 235.787 19.5289C235.998 20.1045 236.363 20.2387 236.65 19.8743C236.996 19.3947 237.149 19.7975 237.034 20.8718C236.977 21.4089 236.996 21.5816 237.072 21.2938C237.188 20.9294 237.283 21.1596 237.475 22.3873C237.61 23.2506 237.686 24.0179 237.629 24.1138C237.571 24.2098 237.686 24.3057 237.897 24.3057C238.089 24.3249 238.262 24.2098 238.262 24.0755C238.262 23.5 238.665 19.8359 238.761 19.5673C238.837 19.3563 238.972 19.4714 239.221 19.951C239.643 20.7375 239.701 20.9869 239.374 20.7951C239.24 20.7183 239.221 20.7375 239.298 20.891C239.374 21.0061 239.509 21.0636 239.605 21.0061C239.701 20.9485 239.816 20.9869 239.892 21.102C240.103 21.4665 240.372 21.102 240.372 20.4306C240.372 20.0661 240.449 19.74 240.525 19.6824C240.602 19.6441 240.66 19.9126 240.641 20.2963C240.602 20.7375 240.621 20.8143 240.698 20.5265C240.756 20.2579 240.909 19.9702 241.063 19.8934C241.216 19.8167 241.331 19.5673 241.331 19.3563C241.331 19.0494 241.427 18.9918 241.715 19.0877C242.022 19.1836 242.099 19.1261 242.118 18.7616C242.137 18.4355 242.175 18.4163 242.233 18.6465C242.329 19.0494 242.597 19.0877 242.789 18.7616C242.885 18.6273 242.847 18.6081 242.674 18.7041C242.54 18.7808 242.636 18.5889 242.885 18.2436C243.384 17.553 243.422 17.553 243.94 17.9175C244.266 18.1669 244.343 18.1669 244.592 17.8216C244.784 17.5722 245.014 17.4763 245.225 17.5722C245.398 17.6298 245.513 17.7449 245.456 17.8216C245.417 17.8983 245.494 17.9751 245.648 17.9751C245.801 17.9751 245.935 17.86 245.935 17.7449C245.935 17.6106 246.07 17.3804 246.242 17.2461C246.511 17.0351 246.588 17.0543 246.894 17.4379C247.067 17.6873 247.316 17.8408 247.432 17.7641C247.681 17.6106 247.739 17.8216 248.141 20.0469C248.525 22.1571 248.602 22.4449 248.832 22.4449C248.928 22.4449 249.005 21.7734 249.005 20.9485C249.005 19.5865 249.043 19.4522 249.388 19.4522C249.849 19.4522 249.849 19.4906 250.252 22.1571C250.443 23.3081 250.674 24.344 250.77 24.4592C250.904 24.5934 250.942 24.5934 250.885 24.4592C250.75 24.2098 251.211 23.7685 251.422 23.9412C251.499 24.0179 251.499 23.9604 251.422 23.8261C251.288 23.5767 252.17 20.373 252.477 20.0661C252.573 19.951 252.803 20.2771 253.052 20.8718C253.417 21.7543 253.532 21.8694 253.954 21.8118C254.223 21.7734 254.491 21.62 254.53 21.4665C254.587 21.2555 254.549 21.2555 254.395 21.4857C254.146 21.831 254.127 21.5049 254.357 21.1212C254.491 20.9102 254.549 20.9677 254.664 21.313C254.798 21.7159 254.836 21.7159 255.048 21.4281C255.163 21.2555 255.354 21.1787 255.431 21.2555C255.527 21.3322 255.527 21.2938 255.47 21.1596C255.297 20.8718 255.738 18.9726 255.949 19.1069C256.026 19.1645 256.103 19.4906 256.083 19.8167C256.083 20.3347 256.045 20.373 255.911 20.0469C255.776 19.74 255.738 19.7208 255.738 19.9894C255.719 20.162 255.834 20.3922 255.988 20.4689C256.141 20.5649 256.294 21.102 256.352 21.8694C256.429 22.6751 256.41 22.9436 256.314 22.6367C256.16 22.1955 256.141 22.1955 256.122 22.56C256.103 22.7902 256.237 23.0779 256.39 23.2122C256.544 23.3465 256.678 23.6343 256.659 23.8645C256.659 24.2481 256.64 24.2673 256.486 23.8836C256.352 23.5959 256.314 23.5767 256.314 23.8069C256.294 24.1906 256.774 24.6126 257.062 24.5167C257.196 24.4783 257.311 23.7685 257.35 22.7326C257.388 21.7734 257.503 20.7951 257.58 20.5649C257.752 20.1236 257.772 20.162 258.021 20.9102C258.29 21.7159 258.52 22.0228 258.558 21.62C258.558 21.4857 258.654 21.1212 258.75 20.8143C258.942 20.2579 258.942 20.2579 258.961 20.7183C258.98 20.9869 259.019 21.5432 259.076 21.9653C259.153 22.5792 259.134 22.6367 258.999 22.253C258.827 21.7926 258.827 21.7734 258.808 22.2147C258.788 22.4449 258.903 22.6943 259.057 22.7518C259.21 22.8094 259.364 23.2889 259.421 23.9604C259.69 26.4351 260.035 26.2816 260.208 23.6343C260.4 20.4881 260.572 18.8575 260.668 19.1836C260.707 19.3371 260.879 19.7783 261.033 20.1428C261.282 20.7759 261.321 20.7951 261.57 20.4498C261.819 20.1045 261.839 20.1236 261.973 20.6032C262.03 20.8718 262.05 21.4089 262.011 21.7734C261.973 22.1379 262.011 22.4449 262.088 22.4449C262.165 22.4449 262.241 22.9053 262.261 23.4424C262.261 24.5167 262.491 25.3224 262.663 25.0155C262.721 24.9196 262.836 23.3273 262.932 21.4857C263.009 19.6441 263.143 18.3396 263.201 18.6081C263.277 18.8767 263.296 19.4906 263.239 19.9702C263.201 20.4881 263.239 20.9102 263.354 20.9869C263.488 21.0636 263.527 20.8718 263.488 20.3922C263.431 19.9894 263.45 19.8359 263.508 20.0469C263.565 20.2579 263.738 20.68 263.872 21.0061C264.025 21.313 264.179 21.7543 264.236 21.9653C264.294 22.1763 264.294 22.0036 264.256 21.5816C264.198 21.102 264.236 20.9294 264.332 21.102C264.428 21.2555 264.543 21.9461 264.601 22.6367C264.678 23.4808 264.659 23.6726 264.563 23.2122L264.409 22.5408L264.371 23.1355C264.371 23.4616 264.467 23.8453 264.62 23.9604C264.754 24.0755 264.927 24.651 264.985 25.2457C265.157 26.9147 265.503 26.953 265.656 25.3224C265.694 24.8045 265.81 24.4016 265.886 24.4592C265.963 24.4975 265.982 24.344 265.944 24.1138C265.905 23.8836 266.04 22.5216 266.232 21.102L266.577 18.5122L266.826 19.7975C266.961 20.5073 267.037 21.2363 266.961 21.3898C266.903 21.5624 266.922 21.6583 267.018 21.5816C267.114 21.524 267.248 21.6008 267.287 21.7159C267.363 21.9077 267.44 21.9077 267.574 21.6967C267.824 21.3514 267.977 21.8118 268.073 23.3081C268.131 24.1522 268.246 24.4783 268.457 24.5167C268.668 24.5551 268.725 24.4783 268.649 24.3057C268.591 24.1522 268.649 23.9604 268.783 23.8836C268.956 23.7685 268.975 23.922 268.879 24.4592C268.783 24.9579 268.821 25.2649 269.013 25.4951C269.378 25.9171 269.627 26.9338 269.32 26.742C269.167 26.6653 269.148 26.6845 269.224 26.8187C269.454 27.2024 269.896 27.0681 270.011 26.6077C270.049 26.3775 270.222 25.1881 270.394 23.9796C270.567 22.771 270.74 21.5624 270.797 21.2938L270.912 20.8143L271.181 21.3514C271.507 21.9653 271.814 21.8694 271.852 21.1404C271.891 20.68 271.891 20.6608 271.968 21.0636C272.083 21.6583 272.485 21.4857 272.562 20.8334C272.601 20.4881 272.773 20.2579 273.003 20.2004C273.195 20.1428 273.368 20.0085 273.368 19.9126C273.368 19.8167 273.464 19.7975 273.598 19.8743C273.732 19.951 273.752 19.9318 273.675 19.7783C273.521 19.5481 273.867 18.2628 274.174 17.9367C274.289 17.8216 274.308 17.86 274.231 18.0518C274.154 18.2436 274.231 18.3587 274.404 18.3587C274.557 18.3587 274.826 18.0134 274.999 17.6106C275.536 16.2677 275.958 16.8049 276.092 19.0302C276.15 19.8551 276.284 20.6224 276.399 20.7759C276.533 20.9294 276.572 21.102 276.495 21.1596C276.437 21.2363 276.476 21.2938 276.591 21.2938C276.725 21.2938 276.821 21.7734 276.859 22.4832C276.898 23.3849 276.994 23.6726 277.224 23.711C277.435 23.7302 277.512 23.6343 277.473 23.4232C277.416 23.2506 277.512 22.5024 277.646 21.7734L277.914 20.4306L278.068 22.4449C278.145 23.5575 278.183 24.9579 278.145 25.5718C278.106 26.1665 278.125 26.6653 278.221 26.6653C278.298 26.6653 278.356 27.4326 278.356 28.3918C278.356 29.3318 278.432 30.1183 278.528 30.1183C278.624 30.1183 278.759 29.5428 278.816 28.8138C278.893 28.104 278.989 27.1832 279.065 26.7612L279.181 25.9938L279.507 26.9338C279.718 27.6053 279.852 27.7971 279.948 27.5669C280.005 27.3943 280.159 25.5526 280.274 23.4616C280.523 19.2028 280.619 18.493 280.639 20.9102C280.658 21.831 280.734 22.6367 280.83 22.7326C280.926 22.8477 281.061 23.2314 281.099 23.5959C281.137 23.9604 281.156 23.4424 281.118 22.4449L281.061 20.6224L281.252 21.9653C281.348 22.6943 281.483 24.4208 281.559 25.7828C281.674 27.4902 281.79 28.2959 281.962 28.3534C282.135 28.411 282.192 27.7012 282.212 25.284C282.212 23.5575 282.269 21.8118 282.365 21.3898C282.499 20.6608 282.499 20.7183 282.634 22.042C282.691 22.8285 282.845 23.5192 282.941 23.5767C283.056 23.6534 283.171 24.2673 283.209 24.9387C283.267 25.8212 283.286 25.7253 283.247 24.5934C283.228 23.5575 283.286 23.0971 283.401 23.3081C283.478 23.4808 283.535 24.3057 283.497 25.1306C283.459 26.1665 283.516 26.6653 283.65 26.6653C283.881 26.6653 284.111 24.8236 284.111 23.0587C284.111 22.3298 284.168 22.0804 284.341 22.1763C284.475 22.2722 284.494 22.2338 284.399 22.0804C284.322 21.9461 284.322 20.8334 284.418 19.6057L284.571 17.3612L284.801 19.3755C284.916 20.4881 285.051 21.4281 285.07 21.4857C285.108 21.5432 285.185 21.1979 285.243 20.7183C285.358 19.9318 285.377 19.9894 285.53 21.5432C285.645 22.8477 285.741 23.2122 285.933 23.1355C286.087 23.0779 286.24 23.1355 286.279 23.2698C286.317 23.404 286.336 23.0204 286.298 22.4449C286.24 21.4665 286.24 21.4281 286.432 22.0612C286.528 22.4257 286.643 23.5 286.662 24.4592C286.681 25.5718 286.72 25.9747 286.816 25.6102C286.892 25.2457 286.95 25.1689 286.969 25.4183C286.988 25.6294 287.046 26.1473 287.084 26.5694C287.161 27.1449 287.142 27.2408 287.007 26.953C286.912 26.742 286.816 26.6653 286.816 26.7996C286.796 26.9147 286.912 27.26 287.065 27.5669C287.219 27.8547 287.43 28.3151 287.525 28.5836C287.717 29.1016 287.813 28.104 288.063 23.1547C288.197 20.6416 288.274 20.2004 288.35 21.6392C288.446 23.0587 288.945 22.9053 289.214 21.3898L289.367 20.6224L289.501 21.3898C289.597 21.8118 289.616 22.6175 289.54 23.1547C289.463 23.9796 289.501 24.1906 289.751 24.2865C289.923 24.344 290.058 24.5934 290.058 24.8428C290.058 25.5526 290.288 26.4734 290.461 26.4734C290.556 26.4734 290.633 25.1114 290.652 23.4424C290.652 21.0061 290.902 17.9175 290.998 18.9534C290.998 19.1069 291.17 19.5289 291.343 19.9126C291.669 20.5841 291.669 20.6032 291.784 20.1428C291.88 19.7975 291.957 19.9894 292.053 20.8526C292.149 21.524 292.283 22.0612 292.398 22.0612C292.494 22.0612 292.513 22.1571 292.436 22.2914C292.36 22.4065 292.379 22.4449 292.513 22.3681C292.628 22.3106 292.763 22.4065 292.82 22.5792C292.859 22.771 292.859 22.5216 292.801 22.0036C292.743 21.4089 292.763 21.102 292.916 21.102C293.031 21.102 293.127 21.3898 293.127 21.7543C293.127 22.9053 293.376 24.7469 293.53 24.7469C293.607 24.7469 293.741 24.3824 293.818 23.922C293.933 23.2122 293.971 23.1738 294.086 23.5959C294.201 24.0371 294.24 24.0179 294.432 23.3081C294.566 22.8861 294.7 22.2722 294.739 21.9653C294.777 21.6392 294.815 22.2914 294.815 23.404C294.815 25.6677 295.026 27.8163 295.237 27.8163C295.314 27.8163 295.448 27.1832 295.525 26.4159C295.659 25.3032 295.717 25.1498 295.813 25.6102L295.947 26.1857L296.139 25.5143L296.331 24.8428L296.465 25.6485C296.542 26.1089 296.695 26.531 296.81 26.5885C296.906 26.6461 296.983 27.1065 296.964 27.6053C296.925 28.5836 297.117 29.351 297.367 29.351C297.463 29.351 297.559 28.8138 297.559 28.1424C297.578 27.4902 297.635 27.1449 297.674 27.3751C297.827 28.1424 298.115 27.8547 298.115 26.953C298.115 26.4734 298.211 26.0898 298.307 26.0898C298.422 26.0898 298.499 26.32 298.479 26.6077C298.46 26.9147 298.556 27.7396 298.671 28.4877C298.786 29.2167 298.863 30.0416 298.863 30.3102C298.844 30.7514 298.825 30.7514 298.69 30.2142C298.556 29.6771 298.537 29.6579 298.518 30.1183C298.499 30.5979 298.805 31.0775 299.112 31.0775C299.189 31.0775 299.266 30.2718 299.285 29.2934C299.304 27.5477 299.592 25.802 299.63 27.1832C299.65 27.9506 299.841 28.411 300.052 28.2767C300.148 28.2191 300.225 27.9889 300.244 27.7587C300.244 27.3559 300.263 27.3559 300.436 27.7204C300.551 27.9889 300.59 27.8547 300.513 27.2408C300.455 26.6461 300.474 26.4926 300.59 26.7612C300.685 26.9722 300.801 27.6245 300.858 28.2C300.935 28.9289 300.916 29.0824 300.82 28.6796L300.647 28.104L300.628 28.6412C300.609 28.9481 300.724 29.2167 300.896 29.2743C301.05 29.351 301.184 29.5045 301.184 29.6579C301.184 29.8114 301.261 29.9265 301.357 29.9265C301.568 29.9265 301.645 29.4661 302.047 25.9938C302.22 24.6318 302.393 23.4616 302.47 23.404C302.585 23.3081 302.47 24.862 302.239 26.3775C302.163 26.9914 302.182 27.0489 302.316 26.7036C302.431 26.4734 302.565 26.2816 302.623 26.2816C302.7 26.2816 302.7 26.3583 302.623 26.4543C302.565 26.5502 302.604 26.6845 302.719 26.7612C302.815 26.8187 302.911 27.0873 302.911 27.3559C302.911 28.3151 303.275 27.7587 303.505 26.4159C303.64 25.6677 303.774 25.1881 303.832 25.3608C303.87 25.5526 303.966 25.7061 304.062 25.7061C304.273 25.7061 304.445 24.9963 304.465 23.9796C304.465 23.5 304.541 22.9436 304.637 22.7326C304.752 22.4832 304.791 22.7326 304.752 23.5C304.714 24.133 304.733 24.3249 304.772 23.922C304.829 23.4424 304.925 23.2506 305.079 23.3273C305.213 23.404 305.251 23.404 305.174 23.3081C305.098 23.2314 305.117 23.0396 305.213 22.9053C305.328 22.7902 305.501 22.3106 305.596 21.8502C305.75 21.0828 305.769 21.0636 305.731 21.6775C305.731 22.042 305.769 22.4449 305.827 22.5408C305.884 22.6559 305.98 23.4232 306.038 24.2673C306.114 25.2073 306.095 25.5718 305.999 25.2265C305.865 24.7469 305.827 24.7277 305.807 25.0922C305.788 25.5334 306.287 26.4734 306.556 26.4734C306.632 26.4734 306.843 25.1306 307.035 23.5C307.227 21.8694 307.419 20.5649 307.457 20.6032C307.496 20.6416 307.572 20.8718 307.611 21.1212C307.841 22.3106 307.937 22.6367 308.09 22.6367C308.282 22.6367 308.474 21.9461 308.474 21.2555C308.474 20.9869 308.532 20.6032 308.589 20.4498C308.704 20.162 308.743 20.162 308.992 20.4689C309.184 20.7183 309.299 20.7567 309.356 20.5649C309.414 20.4498 309.529 20.373 309.606 20.4114C309.683 20.4689 309.74 20.3538 309.74 20.1812C309.74 19.2412 309.836 18.7808 310.009 18.8959C310.105 18.9534 310.162 19.1069 310.124 19.2412C310.105 19.3755 310.105 19.4138 310.143 19.3179C310.277 19.1069 310.738 19.1645 310.891 19.4138C310.968 19.5289 310.949 19.5673 310.814 19.5098C310.699 19.4138 310.661 19.5289 310.718 19.7783C310.814 20.0853 310.872 20.1236 311.006 19.9126C311.141 19.74 311.16 19.7975 311.102 20.1045C311.045 20.3538 311.045 20.5073 311.102 20.4498C311.16 20.3922 311.371 20.5457 311.563 20.7759C311.87 21.1596 311.908 21.1596 311.927 20.8526C311.927 20.6608 311.985 20.5457 312.081 20.5841C312.157 20.6416 312.234 20.162 312.253 19.5289C312.292 18.2245 312.368 18.071 312.771 18.3971C312.963 18.5506 313.078 18.5698 313.174 18.4163C313.232 18.3012 313.385 18.2628 313.481 18.3204C313.577 18.3779 313.596 18.3012 313.538 18.1477C313.481 17.9943 313.481 17.7832 313.538 17.6681C313.692 17.4187 314.613 17.8792 314.459 18.1285C314.402 18.2245 314.536 18.1669 314.766 17.9559C314.996 17.7641 315.131 17.5147 315.073 17.4187C314.901 17.1694 315.361 16.6898 315.668 16.8241C315.821 16.8816 316.186 16.7281 316.474 16.4979C316.781 16.2677 317.03 16.1718 317.068 16.2869C317.107 16.402 317.222 16.4979 317.318 16.4979C317.433 16.4979 317.471 16.4212 317.414 16.3253C317.356 16.2294 317.433 16.1143 317.586 16.0375C317.74 15.98 317.912 16.0183 317.97 16.1143C318.047 16.2294 318.277 16.3061 318.507 16.3061C318.852 16.3061 318.948 16.191 318.987 15.7498C319.025 15.2126 318.987 15.1934 317.989 15.0783C317.394 15.0016 316.723 14.7714 316.435 14.5412C316.167 14.3302 315.821 14.1959 315.668 14.2534C315.361 14.3877 314.958 13.9657 315.035 13.6204C315.112 13.3134 314.248 13.1792 313.922 13.4477C313.711 13.6204 313.634 13.6012 313.538 13.371C313.481 13.1983 313.5 12.9681 313.577 12.8339C313.654 12.6996 313.634 12.642 313.538 12.7187C313.327 12.8339 312.81 12.4885 312.637 12.0857C312.56 11.9322 312.541 12.0281 312.579 12.3159C312.618 12.6228 312.579 12.853 312.503 12.853C312.292 12.853 312.061 10.8004 312.234 10.5318C312.311 10.3975 312.292 10.3592 312.157 10.4359C312.061 10.4934 311.908 10.4359 311.85 10.3208C311.793 10.1481 311.678 10.1865 311.467 10.4359C311.294 10.6469 311.16 10.7428 311.16 10.6277C311.16 10.5318 311.064 10.5894 310.968 10.7428C310.872 10.8963 310.776 11.1073 310.776 11.2224C310.776 11.3183 310.872 11.28 310.968 11.1265C311.064 10.973 311.16 10.9347 311.16 11.0498C311.16 11.1457 311.025 11.4143 310.853 11.6253C310.699 11.8171 310.623 11.8555 310.699 11.702C310.776 11.5485 310.603 11.6253 310.335 11.8747L309.817 12.3351L309.779 11.7787C309.759 11.4718 309.74 11.069 309.74 10.8963C309.74 10.7236 309.683 10.6085 309.606 10.6661C309.529 10.7045 309.414 10.6277 309.356 10.5126C309.299 10.3208 309.184 10.3592 308.992 10.6085C308.743 10.9155 308.704 10.9155 308.589 10.6277C308.532 10.4743 308.474 10.0906 308.474 9.82202C308.474 9.11222 308.263 8.44079 308.071 8.44079C307.994 8.44079 307.86 8.76691 307.803 9.15059C307.534 10.8196 307.4 10.5318 307.054 7.59671C306.863 5.94691 306.652 4.60406 306.613 4.60406C306.306 4.60406 306.095 5.16039 306.134 5.83181C306.191 6.38814 306.114 6.71426 305.903 6.88692C305.712 7.04038 305.616 7.40487 305.616 7.8461L305.654 8.53671L305.788 7.86528C305.903 7.30896 305.923 7.36651 305.865 8.15304C305.827 8.671 305.788 9.28487 305.769 9.49589C305.769 9.70691 305.654 9.49589 305.539 9.03548C305.309 8.17222 304.848 7.75018 304.81 8.38324C304.791 9.11222 304.465 7.98038 304.465 7.09793C304.445 6.0812 304.273 5.3714 304.062 5.3714C303.966 5.3714 303.87 5.52487 303.832 5.69753C303.774 5.88936 303.64 5.40977 303.505 4.64243C303.371 3.89426 303.179 3.2612 303.083 3.2612C302.987 3.2612 302.911 3.41467 302.911 3.58732C302.911 3.87508 302.872 3.89426 302.719 3.64488C302.623 3.49141 302.527 3.45304 302.527 3.54896C302.527 3.66406 302.604 3.83671 302.681 3.93263C302.757 4.04773 302.776 4.50814 302.7 4.98773C302.604 5.67834 302.585 5.7359 302.546 5.27549C302.527 4.94937 302.412 4.52732 302.316 4.3163C302.182 4.02855 302.163 4.14365 302.239 4.69998C302.47 6.23467 302.585 7.76936 302.47 7.67344C302.393 7.59671 302.182 6.15794 301.971 4.43141C301.472 0.402836 301.357 0.230183 300.896 2.87753C300.609 4.56569 300.302 5.29467 300.494 3.83671C300.57 3.24202 300.551 3.08855 300.436 3.35712C300.283 3.68324 300.244 3.70243 300.244 3.39549C300.225 3.22284 300.091 3.06937 299.937 3.06937C299.745 3.06937 299.65 3.28039 299.63 3.77916C299.592 5.27549 299.304 3.60651 299.285 1.76488C299.266 0.805693 299.189 -2.09808e-05 299.093 -2.09808e-05C298.997 -2.09808e-05 298.863 0.728958 298.786 1.63059Z" fill="#ABABAB"/>
<path d="M221.924 1.63071C221.848 2.53235 221.733 3.29969 221.656 3.33806C221.579 3.39561 221.541 3.77928 221.579 4.20132C221.618 4.64255 221.56 4.98785 221.445 4.98785C221.33 4.98785 221.253 4.60418 221.253 4.12459C221.253 3.22296 220.965 2.9352 220.812 3.68337C220.773 3.93275 220.716 3.58745 220.697 2.91602C220.678 1.74581 220.466 1.40051 220.179 2.05275C220.102 2.24459 220.025 2.45561 220.025 2.53235C220.006 2.5899 219.949 2.72418 219.872 2.80092C219.776 2.87765 219.738 3.24214 219.738 3.62581L219.776 4.31643L219.91 3.54908L220.044 2.78173L220.083 3.58745C220.083 4.02867 220.025 4.43153 219.929 4.48908C219.833 4.56581 219.68 4.96867 219.603 5.42908L219.469 6.23479L219.277 5.56336L219.085 4.89194L218.951 5.46745C218.855 5.92785 218.798 5.77438 218.663 4.64255C218.586 3.89439 218.452 3.26132 218.375 3.26132C218.164 3.26132 217.992 4.98785 217.973 7.48173C217.953 8.6903 217.896 9.41928 217.858 9.11234C217.819 8.78622 217.704 8.19153 217.57 7.76949C217.378 7.05969 217.34 7.04051 217.224 7.48173C217.109 7.90377 217.071 7.8654 216.956 7.13642C216.764 6.11969 216.457 6.08132 216.457 7.07887C216.457 7.50091 216.342 7.92295 216.169 8.05724C216.016 8.19153 215.882 8.4601 215.882 8.65193C215.882 8.86295 215.747 9.01642 215.594 9.01642C215.421 9.01642 215.306 9.20826 215.306 9.5152C215.306 9.78377 215.095 10.2825 214.846 10.6087C214.577 10.954 214.309 11.4719 214.232 11.7981C214.078 12.3544 214.078 12.3544 213.944 11.5103C213.867 11.0307 213.791 9.28499 213.791 7.61602C213.771 4.83438 213.752 4.585 213.445 4.64255C213.253 4.68092 213.081 4.87275 213.062 5.08377C213.004 5.46745 213.004 5.46745 213.196 5.08377C213.349 4.75765 213.369 4.79602 213.292 5.27561C213.253 5.58255 213.158 6.27316 213.081 6.8103C213.004 7.32826 212.793 7.96132 212.601 8.21071C212.409 8.47928 212.313 8.78622 212.39 8.97806C212.486 9.22744 212.544 9.16989 212.64 8.72867C212.812 7.92295 212.831 8.74785 212.64 9.68785L212.505 10.4552L212.352 9.68785C212.198 8.82459 211.93 8.28744 211.757 8.47928C211.68 8.53683 211.565 9.01642 211.489 9.53438C211.373 10.3017 211.316 10.0332 211.22 7.8654C210.99 3.645 210.855 2.30214 210.683 2.30214C210.587 2.30214 210.51 2.55153 210.51 2.87765C210.51 3.18459 210.453 3.45316 210.376 3.45316C210.28 3.45316 210.203 3.9903 210.184 4.62336C210.165 5.37153 210.031 5.92785 209.839 6.13887C209.685 6.31153 209.551 6.61847 209.57 6.82949C209.589 7.11724 209.628 7.09806 209.743 6.71438L209.896 6.23479L209.915 6.75275C209.935 7.05969 209.877 7.28989 209.781 7.28989C209.704 7.28989 209.628 7.57765 209.628 7.90377C209.628 8.24908 209.589 8.78622 209.551 9.11234C209.493 9.59193 209.474 9.55357 209.378 8.84377C209.186 7.34744 208.841 7.69275 208.669 9.53438C208.534 11.0307 208.496 11.1266 208.4 10.3593C208.266 9.15071 208.074 9.7454 207.901 11.9132C207.824 12.9107 207.748 13.6205 207.709 13.5246C207.671 13.4095 207.518 11.3376 207.345 8.92051C207.172 6.48418 206.98 4.4699 206.942 4.43153C206.904 4.39316 206.75 4.4699 206.578 4.60418C206.366 4.77683 206.29 5.21806 206.29 6.13887C206.29 6.86785 206.194 7.48173 206.098 7.5201C205.983 7.55847 205.829 8.22989 205.772 9.01642C205.638 10.3593 205.638 10.3976 205.503 9.68785C205.407 9.26581 205.35 7.5201 205.35 5.79357C205.331 4.08622 205.292 2.68581 205.235 2.68581C204.813 2.68581 204.659 3.24214 204.717 4.54663C204.774 5.60173 204.717 6.08132 204.486 6.42663C204.314 6.67602 204.18 7.19398 204.18 7.55847C204.18 7.92295 204.103 8.28744 203.988 8.345C203.892 8.40255 203.777 9.20826 203.777 10.1291L203.738 11.7981L203.585 9.78377C203.508 8.67112 203.374 6.82949 203.316 5.69765C203.182 3.5299 202.971 3.18459 202.549 4.43153L202.319 5.08377L202.204 4.31643C202.146 3.89439 202.031 3.01194 201.954 2.34051C201.897 1.68826 201.762 1.15112 201.667 1.15112C201.571 1.15112 201.475 1.78418 201.475 2.53235C201.455 3.81765 201.436 4.12459 201.321 4.41234C201.302 4.4699 201.264 5.54418 201.225 6.8103C201.091 10.9923 201.11 10.8005 200.803 9.20826C200.42 7.25153 200.4 7.21316 200.074 7.5201C199.921 7.65438 199.844 7.84622 199.902 7.92295C199.959 8.01887 199.921 8.88214 199.844 9.84132C199.729 11.1842 199.671 11.4336 199.575 10.9348L199.46 10.2634L199.326 10.9156C199.249 11.2609 199.192 12.0091 199.192 12.5462C199.192 14.1193 198.424 14.7715 198.137 13.4478C198.06 13.1217 197.868 12.8532 197.638 12.7956C197.331 12.7189 197.273 12.7572 197.369 13.0066C197.446 13.2176 197.427 13.256 197.312 13.1409C197.005 12.8148 196.66 11.5295 196.813 11.2993C196.89 11.1458 196.871 11.1266 196.736 11.2034C196.602 11.2801 196.506 11.2609 196.506 11.165C196.506 11.0691 196.333 10.9348 196.122 10.8772C195.892 10.8197 195.739 10.6087 195.739 10.3785C195.739 10.1483 195.643 9.97561 195.528 9.97561C195.432 9.97561 195.393 9.87969 195.451 9.78377C195.509 9.66867 195.489 9.59193 195.374 9.59193C195.278 9.59193 195.144 9.78377 195.106 10.014C195.029 10.3976 195.029 10.3976 194.991 9.93724C194.952 9.20826 194.645 9.11234 194.338 9.72622C194.089 10.1866 194.051 10.2058 193.955 9.8605C193.897 9.66867 193.686 8.345 193.513 6.94459C193.034 3.37643 192.88 3.20377 192.343 5.71683C192.171 6.56091 191.94 7.21316 191.844 7.15561C191.768 7.09806 191.729 6.94459 191.787 6.79112C191.844 6.63765 191.787 6.5801 191.633 6.63765C191.48 6.6952 191.307 7.21316 191.231 7.82704C191.135 8.59438 191.039 8.8054 190.943 8.55602C190.828 8.19153 190.809 8.19153 190.713 8.59438C190.636 8.88214 190.674 9.01642 190.866 9.01642C191.02 9.01642 191.077 9.13153 191 9.32336C190.904 9.57275 190.847 9.57275 190.713 9.36173C190.559 9.16989 190.502 9.16989 190.425 9.36173C190.387 9.47683 190.271 9.55357 190.195 9.5152C190.118 9.45765 190.06 9.7454 190.041 10.1291C190.041 10.5127 189.984 11.0499 189.926 11.3185C189.888 11.587 189.83 11.9707 189.792 12.1817C189.773 12.3927 189.504 10.8005 189.197 8.63275C188.909 6.465 188.66 4.68092 188.641 4.64255C188.641 4.62336 188.564 4.60418 188.449 4.60418C188.353 4.60418 188.257 4.77683 188.257 4.98785C188.257 5.19887 188.2 5.37153 188.123 5.37153C188.027 5.37153 187.95 6.04296 187.912 6.86785C187.893 7.67357 187.797 8.36418 187.72 8.40255C187.624 8.42173 187.586 8.6903 187.643 8.99724C187.682 9.30418 187.624 9.70704 187.509 9.91806C187.394 10.1099 187.298 10.1483 187.298 10.014C187.298 9.45765 186.933 9.84132 186.818 10.5511C186.742 10.9732 186.607 11.3568 186.511 11.4336C186.415 11.4911 186.377 11.6062 186.415 11.683C186.473 11.7597 186.454 12.0858 186.358 12.3927C186.262 12.7572 186.166 11.8364 186.07 9.59193C185.974 7.7503 185.859 6.15806 185.802 6.06214C185.629 5.7552 185.399 6.56091 185.399 7.59683C185.38 8.22989 185.284 8.67112 185.092 8.82459C184.938 8.95887 184.823 9.34255 184.823 9.66867L184.862 10.2634L184.996 9.59193L185.13 8.92051L185.169 9.6303C185.169 10.014 185.13 10.4744 185.073 10.6279C184.958 10.9156 184.919 10.9156 184.689 10.6087C184.459 10.2825 184.42 10.3209 184.171 10.9348C184.018 11.2993 183.845 11.7405 183.807 11.894C183.711 12.2201 183.538 10.5895 183.346 7.42418C183.269 6.29234 183.193 5.37153 183.154 5.37153C182.886 5.37153 182.31 6.10051 182.329 6.42663C182.349 6.75275 182.368 6.73357 182.502 6.33071L182.655 5.85112L182.675 6.36908C182.694 6.67602 182.598 6.90622 182.483 6.90622C182.387 6.90622 182.349 7.00214 182.406 7.09806C182.483 7.21316 182.425 8.09561 182.291 9.05479C182.061 10.5703 182.022 10.7238 181.888 10.1866C181.677 9.4001 181.447 9.43846 181.102 10.3017L180.814 11.0307L180.66 10.2634C180.584 9.84132 180.507 8.88214 180.507 8.13397C180.488 7.36663 180.43 6.84867 180.373 6.94459C180.296 7.05969 180.219 7.04051 180.162 6.88704C179.97 6.36908 179.835 6.84867 179.529 9.20826C179.145 12.2393 179.068 12.4119 178.742 11.2225C178.589 10.6854 178.512 10.1483 178.569 10.014C178.627 9.87969 178.589 9.80295 178.493 9.87969C178.397 9.93724 178.262 9.8605 178.205 9.7454C178.147 9.55357 178.032 9.59193 177.84 9.82214C177.591 10.1291 177.553 10.1291 177.361 9.68785C177.015 8.93969 176.651 9.11234 176.191 10.2058C175.941 10.8005 175.711 11.1266 175.615 11.0115C175.308 10.7046 174.407 7.50091 174.56 7.25153C174.637 7.11724 174.618 7.09806 174.483 7.17479C174.349 7.25153 174.253 7.21316 174.253 7.09806C174.253 6.71438 173.39 6.98296 173.351 7.38581L173.294 7.76949L173.486 7.38581C173.697 6.96377 173.716 6.8103 173.294 9.59193C173.006 11.5295 172.968 11.6254 172.527 11.6254C172.181 11.6254 172.143 11.4911 172.143 10.1291C172.143 9.32336 172.066 8.61357 171.97 8.55602C171.759 8.42173 171.567 8.86295 171.548 9.55357L171.529 10.0715L171.356 9.59193C171.222 9.20826 171.203 9.24663 171.28 9.84132C171.356 10.5127 171.145 12.1817 170.877 13.1025C170.819 13.2752 170.685 13.3711 170.57 13.3136C170.455 13.2368 170.205 13.3903 170.013 13.6397C169.687 14.0809 169.668 14.0809 169.284 13.7356C169.035 13.5054 168.728 13.4287 168.46 13.4862C167.98 13.6013 167.27 13.1985 167.5 12.9491C167.577 12.8723 167.404 12.9491 167.117 13.1217C166.599 13.467 166.196 13.4095 166.196 12.9874C166.196 12.8532 166.273 12.8723 166.388 13.045C166.522 13.2752 166.599 13.2752 166.771 13.0834C166.867 12.9683 166.906 12.8915 166.848 12.9491C166.771 13.0066 166.599 12.9491 166.445 12.834C166.311 12.7189 166.196 12.6805 166.196 12.7572C166.196 12.834 166.062 12.7956 165.908 12.6613C165.755 12.527 165.678 12.3544 165.736 12.2585C165.793 12.1625 165.755 12.0858 165.64 12.0858C165.544 12.0858 165.409 12.2393 165.371 12.4119C165.313 12.6613 165.275 12.6421 165.256 12.316C165.237 11.9515 165.16 11.894 164.853 11.9899C164.565 12.0858 164.469 12.0283 164.469 11.7213C164.469 11.5103 164.354 11.2609 164.201 11.1842C164.047 11.1074 163.894 10.8197 163.836 10.5511C163.76 10.2634 163.74 10.3401 163.779 10.7813C163.798 11.165 163.74 11.4336 163.664 11.3952C163.587 11.3376 163.51 11.0115 163.51 10.647C163.51 10.014 163.127 9.49602 162.973 9.93724C162.935 10.0715 162.82 10.1291 162.743 10.0715C162.647 10.014 162.513 10.0715 162.436 10.1866C162.359 10.3401 162.378 10.3593 162.513 10.2825C162.839 10.0907 162.781 10.3401 162.359 11.1266C161.918 11.9707 161.86 11.8364 161.592 9.01642C161.458 7.80785 161.342 6.79112 161.304 6.75275C161.112 6.54173 160.441 7.17479 160.46 7.53928C160.479 7.94214 160.479 7.94214 160.652 7.48173C160.748 7.15561 160.767 7.34744 160.69 8.05724C160.633 8.65193 160.479 9.18908 160.326 9.26581C160.172 9.34255 160.057 9.61112 160.076 9.84132C160.096 10.2442 160.115 10.225 160.249 9.78377C160.383 9.36173 160.402 9.34255 160.422 9.70704C160.441 9.93724 160.307 10.225 160.153 10.3593C160 10.4936 159.865 10.743 159.884 10.9156C159.884 11.1458 159.923 11.1266 160.057 10.8389C160.211 10.4744 160.23 10.4744 160.23 10.8772C160.249 11.376 159.942 11.6254 159.789 11.2225C159.635 10.8005 159.328 10.8772 159.04 11.4336C158.81 11.894 158.772 11.7981 158.446 9.93724C158.273 8.84377 158.062 7.80785 158.024 7.61602C157.87 7.13642 157.563 7.21316 157.563 7.7503C157.563 7.99969 157.429 8.30663 157.276 8.44091C157.122 8.5752 156.988 8.82459 157.007 8.99724C157.007 9.22744 157.045 9.22744 157.199 8.92051C157.41 8.4601 157.371 8.74785 156.853 11.4144L156.527 13.1409L156.259 12.4119C155.933 11.5679 155.702 11.5103 155.434 12.2201C155.127 13.0258 154.667 13.9466 154.762 13.6013C154.82 13.3519 154.762 13.3136 154.475 13.3711C154.264 13.4287 154.129 13.5246 154.187 13.563C154.225 13.6205 154.187 13.8891 154.091 14.1768C153.88 14.7523 153.228 15.1552 152.48 15.1552C152.134 15.1552 152 15.2511 152 15.5389C152 15.8266 152.134 15.9225 152.48 15.9225C153.343 15.9225 153.918 16.3254 154.149 17.1119C154.264 17.5148 154.475 17.8409 154.609 17.8409C154.762 17.8409 154.82 17.7066 154.743 17.4956C154.667 17.3038 154.705 17.227 154.801 17.3229C154.897 17.4189 155.108 17.8793 155.261 18.3589C155.626 19.4907 155.933 19.5866 156.24 18.6658C156.47 17.956 156.489 17.956 156.623 18.4164C156.7 18.685 156.758 19.0687 156.758 19.2797C156.758 19.5866 156.738 19.6058 156.662 19.3181C156.623 19.1454 156.489 18.9919 156.393 18.9919C156.182 18.9919 156.489 19.6634 156.796 19.8552C156.911 19.9127 156.988 20.1621 156.969 20.3923C156.949 20.776 156.93 20.776 156.796 20.3348C156.681 19.9511 156.642 19.9319 156.642 20.2389C156.642 20.4499 156.719 20.8336 156.796 21.1021C156.93 21.505 156.949 21.5242 156.988 21.198C157.007 20.987 157.141 21.3323 157.295 21.9654C157.582 23.2699 157.621 23.6727 157.371 23.1164C157.256 22.8478 157.199 22.8287 157.199 23.0205C157.18 23.1932 157.352 23.4617 157.544 23.6344C157.985 23.9989 157.928 24.1332 158.446 21.1405C158.676 19.7785 158.829 19.2605 158.925 19.5291C159.136 20.1046 159.501 20.2389 159.789 19.8744C160.134 19.3948 160.287 19.7976 160.172 20.8719C160.115 21.4091 160.134 21.5817 160.211 21.294C160.326 20.9295 160.422 21.1597 160.613 22.3874C160.748 23.2507 160.824 24.018 160.767 24.114C160.709 24.2099 160.824 24.3058 161.036 24.3058C161.227 24.325 161.4 24.2099 161.4 24.0756C161.4 23.5001 161.803 19.836 161.899 19.5674C161.976 19.3564 162.11 19.4715 162.359 19.9511C162.781 20.7376 162.839 20.987 162.513 20.7952C162.378 20.7185 162.359 20.7376 162.436 20.8911C162.513 21.0062 162.647 21.0638 162.743 21.0062C162.839 20.9487 162.954 20.987 163.031 21.1021C163.242 21.4666 163.51 21.1021 163.51 20.4307C163.51 20.0662 163.587 19.7401 163.664 19.6825C163.74 19.6442 163.798 19.9127 163.779 20.2964C163.74 20.7376 163.76 20.8144 163.836 20.5266C163.894 20.2581 164.047 19.9703 164.201 19.8936C164.354 19.8168 164.469 19.5674 164.469 19.3564C164.469 19.0495 164.565 18.9919 164.853 19.0878C165.16 19.1838 165.237 19.1262 165.256 18.7617C165.275 18.4356 165.313 18.4164 165.371 18.6466C165.467 19.0495 165.736 19.0878 165.927 18.7617C166.023 18.6274 165.985 18.6083 165.812 18.7042C165.678 18.7809 165.774 18.5891 166.023 18.2438C166.522 17.5532 166.56 17.5532 167.078 17.9176C167.404 18.167 167.481 18.167 167.731 17.8217C167.922 17.5723 168.153 17.4764 168.364 17.5723C168.536 17.6299 168.651 17.745 168.594 17.8217C168.556 17.8985 168.632 17.9752 168.786 17.9752C168.939 17.9752 169.073 17.8601 169.073 17.745C169.073 17.6107 169.208 17.3805 169.38 17.2462C169.649 17.0352 169.726 17.0544 170.033 17.4381C170.205 17.6874 170.455 17.8409 170.57 17.7642C170.819 17.6107 170.877 17.8217 171.28 20.047C171.663 22.1572 171.74 22.445 171.97 22.445C172.066 22.445 172.143 21.7736 172.143 20.9487C172.143 19.5866 172.181 19.4523 172.527 19.4523C172.987 19.4523 172.987 19.4907 173.39 22.1572C173.582 23.3083 173.812 24.3442 173.908 24.4593C174.042 24.5936 174.08 24.5936 174.023 24.4593C173.889 24.2099 174.349 23.7687 174.56 23.9413C174.637 24.018 174.637 23.9605 174.56 23.8262C174.426 23.5768 175.308 20.3732 175.615 20.0662C175.711 19.9511 175.941 20.2772 176.191 20.8719C176.555 21.7544 176.67 21.8695 177.092 21.8119C177.361 21.7736 177.629 21.6201 177.668 21.4666C177.725 21.2556 177.687 21.2556 177.533 21.4858C177.284 21.8311 177.265 21.505 177.495 21.1213C177.629 20.9103 177.687 20.9678 177.802 21.3132C177.936 21.716 177.975 21.716 178.186 21.4283C178.301 21.2556 178.493 21.1789 178.569 21.2556C178.665 21.3323 178.665 21.294 178.608 21.1597C178.435 20.8719 178.876 18.9727 179.087 19.107C179.164 19.1646 179.241 19.4907 179.222 19.8168C179.222 20.3348 179.183 20.3732 179.049 20.047C178.915 19.7401 178.876 19.7209 178.876 19.9895C178.857 20.1621 178.972 20.3923 179.126 20.4691C179.279 20.565 179.433 21.1021 179.49 21.8695C179.567 22.6752 179.548 22.9438 179.452 22.6368C179.298 22.1956 179.279 22.1956 179.26 22.5601C179.241 22.7903 179.375 23.078 179.529 23.2123C179.682 23.3466 179.816 23.6344 179.797 23.8646C179.797 24.2483 179.778 24.2674 179.624 23.8838C179.49 23.596 179.452 23.5768 179.452 23.807C179.433 24.1907 179.912 24.6127 180.2 24.5168C180.334 24.4785 180.449 23.7687 180.488 22.7327C180.526 21.7736 180.641 20.7952 180.718 20.565C180.891 20.1238 180.91 20.1621 181.159 20.9103C181.428 21.716 181.658 22.0229 181.696 21.6201C181.696 21.4858 181.792 21.1213 181.888 20.8144C182.08 20.2581 182.08 20.2581 182.099 20.7185C182.118 20.987 182.157 21.5434 182.214 21.9654C182.291 22.5793 182.272 22.6368 182.138 22.2532C181.965 21.7927 181.965 21.7736 181.946 22.2148C181.927 22.445 182.042 22.6944 182.195 22.7519C182.349 22.8095 182.502 23.2891 182.56 23.9605C182.828 26.4352 183.173 26.2817 183.346 23.6344C183.538 20.4883 183.711 18.8576 183.807 19.1838C183.845 19.3372 184.018 19.7785 184.171 20.1429C184.42 20.776 184.459 20.7952 184.708 20.4499C184.958 20.1046 184.977 20.1238 185.111 20.6034C185.169 20.8719 185.188 21.4091 185.149 21.7736C185.111 22.138 185.149 22.445 185.226 22.445C185.303 22.445 185.38 22.9054 185.399 23.4425C185.399 24.5168 185.629 25.3225 185.802 25.0156C185.859 24.9197 185.974 23.3274 186.07 21.4858C186.147 19.6442 186.281 18.3397 186.339 18.6083C186.415 18.8768 186.435 19.4907 186.377 19.9703C186.339 20.4883 186.377 20.9103 186.492 20.987C186.627 21.0638 186.665 20.8719 186.627 20.3923C186.569 19.9895 186.588 19.836 186.646 20.047C186.703 20.2581 186.876 20.6801 187.01 21.0062C187.164 21.3132 187.317 21.7544 187.375 21.9654C187.432 22.1764 187.432 22.0038 187.394 21.5817C187.336 21.1021 187.375 20.9295 187.471 21.1021C187.567 21.2556 187.682 21.9462 187.739 22.6368C187.816 23.4809 187.797 23.6727 187.701 23.2123L187.547 22.5409L187.509 23.1356C187.509 23.4617 187.605 23.8454 187.758 23.9605C187.893 24.0756 188.065 24.6511 188.123 25.2458C188.295 26.9148 188.641 26.9531 188.794 25.3225C188.833 24.8046 188.948 24.4017 189.024 24.4593C189.101 24.4976 189.12 24.3442 189.082 24.114C189.044 23.8838 189.178 22.5217 189.37 21.1021L189.715 18.5123L189.964 19.7976C190.099 20.5074 190.175 21.2364 190.099 21.3899C190.041 21.5625 190.06 21.6585 190.156 21.5817C190.252 21.5242 190.387 21.6009 190.425 21.716C190.502 21.9078 190.578 21.9078 190.713 21.6968C190.962 21.3515 191.115 21.8119 191.211 23.3083C191.269 24.1523 191.384 24.4785 191.595 24.5168C191.806 24.5552 191.864 24.4785 191.787 24.3058C191.729 24.1523 191.787 23.9605 191.921 23.8838C192.094 23.7687 192.113 23.9221 192.017 24.4593C191.921 24.958 191.96 25.265 192.151 25.4952C192.516 25.9172 192.765 26.934 192.458 26.7421C192.305 26.6654 192.286 26.6846 192.362 26.8189C192.593 27.2025 193.034 27.0683 193.149 26.6078C193.187 26.3776 193.36 25.1883 193.533 23.9797C193.705 22.7711 193.878 21.5625 193.935 21.294L194.051 20.8144L194.319 21.3515C194.645 21.9654 194.952 21.8695 194.991 21.1405C195.029 20.6801 195.029 20.6609 195.106 21.0638C195.221 21.6585 195.624 21.4858 195.7 20.8336C195.739 20.4883 195.911 20.2581 196.142 20.2005C196.333 20.1429 196.506 20.0087 196.506 19.9127C196.506 19.8168 196.602 19.7976 196.736 19.8744C196.871 19.9511 196.89 19.9319 196.813 19.7785C196.66 19.5483 197.005 18.2629 197.312 17.9368C197.427 17.8217 197.446 17.8601 197.369 18.0519C197.293 18.2438 197.369 18.3589 197.542 18.3589C197.695 18.3589 197.964 18.0136 198.137 17.6107C198.674 16.2678 199.096 16.805 199.23 19.0303C199.288 19.8552 199.422 20.6225 199.537 20.776C199.671 20.9295 199.71 21.1021 199.633 21.1597C199.575 21.2364 199.614 21.294 199.729 21.294C199.863 21.294 199.959 21.7736 199.998 22.4834C200.036 23.385 200.132 23.6727 200.362 23.7111C200.573 23.7303 200.65 23.6344 200.611 23.4234C200.554 23.2507 200.65 22.5025 200.784 21.7736L201.053 20.4307L201.206 22.445C201.283 23.5576 201.321 24.958 201.283 25.5719C201.244 26.1666 201.264 26.6654 201.36 26.6654C201.436 26.6654 201.494 27.4327 201.494 28.3919C201.494 29.3319 201.571 30.1185 201.667 30.1185C201.762 30.1185 201.897 29.5429 201.954 28.814C202.031 28.1042 202.127 27.1834 202.204 26.7613L202.319 25.994L202.645 26.934C202.856 27.6054 202.99 27.7972 203.086 27.567C203.144 27.3944 203.297 25.5527 203.412 23.4617C203.662 19.2029 203.758 18.4932 203.777 20.9103C203.796 21.8311 203.873 22.6368 203.969 22.7327C204.064 22.8478 204.199 23.2315 204.237 23.596C204.275 23.9605 204.295 23.4425 204.256 22.445L204.199 20.6225L204.391 21.9654C204.486 22.6944 204.621 24.4209 204.698 25.7829C204.813 27.4903 204.928 28.296 205.1 28.3536C205.273 28.4111 205.331 27.7013 205.35 25.2842C205.35 23.5576 205.407 21.8119 205.503 21.3899C205.638 20.6609 205.638 20.7185 205.772 22.0421C205.829 22.8287 205.983 23.5193 206.079 23.5768C206.194 23.6536 206.309 24.2674 206.347 24.9389C206.405 25.8213 206.424 25.7254 206.386 24.5936C206.366 23.5576 206.424 23.0972 206.539 23.3083C206.616 23.4809 206.673 24.3058 206.635 25.1307C206.597 26.1666 206.654 26.6654 206.789 26.6654C207.019 26.6654 207.249 24.8238 207.249 23.0589C207.249 22.3299 207.306 22.0805 207.479 22.1764C207.613 22.2723 207.633 22.234 207.537 22.0805C207.46 21.9462 207.46 20.8336 207.556 19.6058L207.709 17.3613L207.94 19.3756C208.055 20.4883 208.189 21.4283 208.208 21.4858C208.246 21.5434 208.323 21.198 208.381 20.7185C208.496 19.9319 208.515 19.9895 208.669 21.5434C208.784 22.8478 208.88 23.2123 209.071 23.1356C209.225 23.078 209.378 23.1356 209.417 23.2699C209.455 23.4042 209.474 23.0205 209.436 22.445C209.378 21.4666 209.378 21.4283 209.57 22.0613C209.666 22.4258 209.781 23.5001 209.8 24.4593C209.82 25.5719 209.858 25.9748 209.954 25.6103C210.031 25.2458 210.088 25.1691 210.107 25.4185C210.126 25.6295 210.184 26.1474 210.222 26.5695C210.299 27.145 210.28 27.2409 210.146 26.9531C210.05 26.7421 209.954 26.6654 209.954 26.7997C209.935 26.9148 210.05 27.2601 210.203 27.567C210.357 27.8548 210.568 28.3152 210.664 28.5838C210.855 29.1017 210.951 28.1042 211.201 23.1548C211.335 20.6417 211.412 20.2005 211.489 21.6393C211.584 23.0589 212.083 22.9054 212.352 21.3899L212.505 20.6225L212.64 21.3899C212.735 21.8119 212.755 22.6176 212.678 23.1548C212.601 23.9797 212.64 24.1907 212.889 24.2866C213.062 24.3442 213.196 24.5936 213.196 24.8429C213.196 25.5527 213.426 26.4736 213.599 26.4736C213.695 26.4736 213.771 25.1115 213.791 23.4425C213.791 21.0062 214.04 17.9176 214.136 18.9536C214.136 19.107 214.309 19.5291 214.481 19.9127C214.807 20.5842 214.807 20.6034 214.922 20.1429C215.018 19.7976 215.095 19.9895 215.191 20.8527C215.287 21.5242 215.421 22.0613 215.536 22.0613C215.632 22.0613 215.651 22.1572 215.575 22.2915C215.498 22.4066 215.517 22.445 215.651 22.3683C215.766 22.3107 215.901 22.4066 215.958 22.5793C215.997 22.7711 215.997 22.5217 215.939 22.0038C215.882 21.4091 215.901 21.1021 216.054 21.1021C216.169 21.1021 216.265 21.3899 216.265 21.7544C216.265 22.9054 216.515 24.747 216.668 24.747C216.745 24.747 216.879 24.3825 216.956 23.9221C217.071 23.2123 217.109 23.174 217.224 23.596C217.34 24.0372 217.378 24.018 217.57 23.3083C217.704 22.8862 217.838 22.2723 217.877 21.9654C217.915 21.6393 217.953 22.2915 217.953 23.4042C217.953 25.6678 218.164 27.8164 218.375 27.8164C218.452 27.8164 218.586 27.1834 218.663 26.416C218.798 25.3034 218.855 25.1499 218.951 25.6103L219.085 26.1858L219.277 25.5144L219.469 24.8429L219.603 25.6487C219.68 26.1091 219.833 26.5311 219.949 26.5887C220.044 26.6462 220.121 27.1066 220.102 27.6054C220.064 28.5838 220.255 29.3511 220.505 29.3511C220.601 29.3511 220.697 28.814 220.697 28.1425C220.716 27.4903 220.773 27.145 220.812 27.3752C220.965 28.1425 221.253 27.8548 221.253 26.9531C221.253 26.4736 221.349 26.0899 221.445 26.0899C221.56 26.0899 221.637 26.3201 221.618 26.6078C221.598 26.9148 221.694 27.7397 221.809 28.4878C221.924 29.2168 222.001 30.0417 222.001 30.3103C221.982 30.7515 221.963 30.7515 221.829 30.2144C221.694 29.6772 221.675 29.658 221.656 30.1185C221.637 30.598 221.944 31.0776 222.251 31.0776C222.327 31.0776 222.404 30.2719 222.423 29.2936C222.442 27.5478 222.73 25.8021 222.769 27.1834C222.788 27.9507 222.98 28.4111 223.191 28.2768C223.286 28.2193 223.363 27.9891 223.382 27.7589C223.382 27.356 223.402 27.356 223.574 27.7205C223.689 27.9891 223.728 27.8548 223.651 27.2409C223.593 26.6462 223.613 26.4927 223.728 26.7613C223.824 26.9723 223.939 27.6246 223.996 28.2001C224.073 28.9291 224.054 29.0825 223.958 28.6797L223.785 28.1042L223.766 28.6413C223.747 28.9483 223.862 29.2168 224.035 29.2744C224.188 29.3511 224.322 29.5046 224.322 29.658C224.322 29.8115 224.399 29.9266 224.495 29.9266C224.706 29.9266 224.783 29.4662 225.186 25.994C225.358 24.6319 225.531 23.4617 225.608 23.4042C225.723 23.3083 225.608 24.8621 225.378 26.3776C225.301 26.9915 225.32 27.0491 225.454 26.7038C225.569 26.4736 225.704 26.2817 225.761 26.2817C225.838 26.2817 225.838 26.3585 225.761 26.4544C225.704 26.5503 225.742 26.6846 225.857 26.7613C225.953 26.8189 226.049 27.0874 226.049 27.356C226.049 28.3152 226.413 27.7589 226.644 26.416C226.778 25.6678 226.912 25.1883 226.97 25.3609C227.008 25.5527 227.104 25.7062 227.2 25.7062C227.411 25.7062 227.584 24.9964 227.603 23.9797C227.603 23.5001 227.68 22.9438 227.775 22.7327C227.891 22.4834 227.929 22.7327 227.891 23.5001C227.852 24.1332 227.871 24.325 227.91 23.9221C227.967 23.4425 228.063 23.2507 228.217 23.3274C228.351 23.4042 228.389 23.4042 228.313 23.3083C228.236 23.2315 228.255 23.0397 228.351 22.9054C228.466 22.7903 228.639 22.3107 228.735 21.8503C228.888 21.0829 228.907 21.0638 228.869 21.6776C228.869 22.0421 228.907 22.445 228.965 22.5409C229.022 22.656 229.118 23.4234 229.176 24.2674C229.253 25.2074 229.233 25.5719 229.138 25.2266C229.003 24.747 228.965 24.7278 228.946 25.0923C228.926 25.5336 229.425 26.4736 229.694 26.4736C229.771 26.4736 229.982 25.1307 230.173 23.5001C230.365 21.8695 230.557 20.565 230.595 20.6034C230.634 20.6417 230.711 20.8719 230.749 21.1213C230.979 22.3107 231.075 22.6368 231.229 22.6368C231.42 22.6368 231.612 21.9462 231.612 21.2556C231.612 20.987 231.67 20.6034 231.727 20.4499C231.842 20.1621 231.881 20.1621 232.13 20.4691C232.322 20.7185 232.437 20.7568 232.495 20.565C232.552 20.4499 232.667 20.3732 232.744 20.4115C232.821 20.4691 232.878 20.354 232.878 20.1813C232.878 19.2413 232.974 18.7809 233.147 18.896C233.243 18.9536 233.3 19.107 233.262 19.2413C233.243 19.3756 233.243 19.414 233.281 19.3181C233.415 19.107 233.876 19.1646 234.029 19.414C234.106 19.5291 234.087 19.5674 233.953 19.5099C233.838 19.414 233.799 19.5291 233.857 19.7785C233.953 20.0854 234.01 20.1238 234.144 19.9127C234.279 19.7401 234.298 19.7976 234.24 20.1046C234.183 20.354 234.183 20.5074 234.24 20.4499C234.298 20.3923 234.509 20.5458 234.701 20.776C235.008 21.1597 235.046 21.1597 235.065 20.8527C235.065 20.6609 235.123 20.5458 235.219 20.5842C235.295 20.6417 235.372 20.1621 235.391 19.5291C235.43 18.2246 235.506 18.0711 235.909 18.3972C236.101 18.5507 236.216 18.5699 236.312 18.4164C236.37 18.3013 236.523 18.2629 236.619 18.3205C236.715 18.3781 236.734 18.3013 236.677 18.1478C236.619 17.9944 236.619 17.7834 236.677 17.6683C236.83 17.4189 237.751 17.8793 237.597 18.1287C237.54 18.2246 237.674 18.167 237.904 17.956C238.135 17.7642 238.269 17.5148 238.211 17.4189C238.039 17.1695 238.499 16.6899 238.806 16.8242C238.96 16.8817 239.324 16.7283 239.612 16.4981C239.919 16.2678 240.168 16.1719 240.206 16.287C240.245 16.4021 240.36 16.4981 240.456 16.4981C240.571 16.4981 240.609 16.4213 240.552 16.3254C240.494 16.2295 240.571 16.1144 240.724 16.0376C240.878 15.9801 241.051 16.0185 241.108 16.1144C241.185 16.2295 241.415 16.3062 241.645 16.3062C241.991 16.3062 242.086 16.1911 242.125 15.7499C242.163 15.2127 242.125 15.1936 241.127 15.0785C240.533 15.0017 239.861 14.7715 239.573 14.5413C239.305 14.3303 238.96 14.196 238.806 14.2536C238.499 14.3878 238.096 13.9658 238.173 13.6205C238.25 13.3136 237.386 13.1793 237.06 13.4478C236.849 13.6205 236.773 13.6013 236.677 13.3711C236.619 13.1985 236.638 12.9683 236.715 12.834C236.792 12.6997 236.773 12.6421 236.677 12.7189C236.466 12.834 235.948 12.4887 235.775 12.0858C235.698 11.9323 235.679 12.0283 235.718 12.316C235.756 12.623 235.718 12.8532 235.641 12.8532C235.43 12.8532 235.2 10.8005 235.372 10.5319C235.449 10.3976 235.43 10.3593 235.295 10.436C235.2 10.4936 235.046 10.436 234.989 10.3209C234.931 10.1483 234.816 10.1866 234.605 10.436C234.432 10.647 234.298 10.743 234.298 10.6279C234.298 10.5319 234.202 10.5895 234.106 10.743C234.01 10.8964 233.914 11.1074 233.914 11.2225C233.914 11.3185 234.01 11.2801 234.106 11.1266C234.202 10.9732 234.298 10.9348 234.298 11.0499C234.298 11.1458 234.164 11.4144 233.991 11.6254C233.838 11.8172 233.761 11.8556 233.838 11.7021C233.914 11.5487 233.742 11.6254 233.473 11.8748L232.955 12.3352L232.917 11.7789C232.898 11.4719 232.878 11.0691 232.878 10.8964C232.878 10.7238 232.821 10.6087 232.744 10.6662C232.667 10.7046 232.552 10.6279 232.495 10.5127C232.437 10.3209 232.322 10.3593 232.13 10.6087C231.881 10.9156 231.842 10.9156 231.727 10.6279C231.67 10.4744 231.612 10.0907 231.612 9.82214C231.612 9.11234 231.401 8.44091 231.209 8.44091C231.133 8.44091 230.998 8.76704 230.941 9.15071C230.672 10.8197 230.538 10.5319 230.193 7.59683C230.001 5.94704 229.79 4.60418 229.751 4.60418C229.444 4.60418 229.233 5.16051 229.272 5.83194C229.329 6.38826 229.253 6.71438 229.042 6.88704C228.85 7.04051 228.754 7.405 228.754 7.84622L228.792 8.53683L228.926 7.8654C229.042 7.30908 229.061 7.36663 229.003 8.15316C228.965 8.67112 228.926 9.28499 228.907 9.49602C228.907 9.70704 228.792 9.49602 228.677 9.03561C228.447 8.17234 227.986 7.7503 227.948 8.38336C227.929 9.11234 227.603 7.98051 227.603 7.09806C227.584 6.08132 227.411 5.37153 227.2 5.37153C227.104 5.37153 227.008 5.525 226.97 5.69765C226.912 5.88949 226.778 5.40989 226.644 4.64255C226.509 3.89439 226.318 3.26132 226.222 3.26132C226.126 3.26132 226.049 3.41479 226.049 3.58745C226.049 3.8752 226.011 3.89439 225.857 3.645C225.761 3.49153 225.665 3.45316 225.665 3.54908C225.665 3.66418 225.742 3.83683 225.819 3.93275C225.895 4.04785 225.915 4.50826 225.838 4.98785C225.742 5.67847 225.723 5.73602 225.684 5.27561C225.665 4.94949 225.55 4.52745 225.454 4.31643C225.32 4.02867 225.301 4.14377 225.378 4.7001C225.608 6.23479 225.723 7.76949 225.608 7.67357C225.531 7.59683 225.32 6.15806 225.109 4.43153C224.61 0.402959 224.495 0.230306 224.035 2.87765C223.747 4.56581 223.44 5.29479 223.632 3.83683C223.709 3.24214 223.689 3.08867 223.574 3.35724C223.421 3.68337 223.382 3.70255 223.382 3.39561C223.363 3.22296 223.229 3.06949 223.075 3.06949C222.884 3.06949 222.788 3.28051 222.769 3.77928C222.73 5.27561 222.442 3.60663 222.423 1.765C222.404 0.805815 222.327 0.000101604 222.231 0.000101604C222.135 0.000101604 222.001 0.729081 221.924 1.63071Z" fill="#f2f2f2"/>
<path d="M165.72 15.4465C165.72 15.6931 165.52 15.8929 165.274 15.8929L0.446421 15.8929C0.19985 15.8929 -3.06819e-05 15.6931 -3.06819e-05 15.4465V15.4465C-3.06819e-05 15.1999 0.199854 15 0.446425 15L165.274 15C165.52 15 165.72 15.1999 165.72 15.4465V15.4465Z" fill="#f2f2f2"/>
</svg>
