<?xml version="1.0" standalone="no"?>
<!DOCTYPE svg PUBLIC "-//W3C//DTD SVG 20010904//EN"
 "http://www.w3.org/TR/2001/REC-SVG-20010904/DTD/svg10.dtd">
<svg version="1.0" xmlns="http://www.w3.org/2000/svg"
 width="826.000000pt" height="826.000000pt" viewBox="0 0 826.000000 826.000000"
 preserveAspectRatio="xMidYMid meet">
<metadata>
Created by potrace 1.16, written by Peter Selinger 2001-2019
</metadata>
<g transform="translate(0.000000,826.000000) scale(0.100000,-0.100000)"
fill="#000000" stroke="none">
<path d="M4560 7301 c-45 -14 -89 -41 -99 -59 -5 -9 -12 -144 -16 -299 -5
-209 -11 -285 -20 -293 -9 -8 -29 -5 -70 11 -62 23 -118 67 -141 110 -22 43
-17 116 11 177 13 28 20 52 15 52 -16 0 -69 -80 -82 -122 -24 -82 36 -200 147
-289 98 -79 122 -105 128 -138 4 -18 13 -31 22 -31 13 0 15 34 15 268 0 147 3
311 7 364 l6 97 41 -22 c34 -18 58 -22 146 -22 89 0 112 3 151 23 59 29 79 63
58 100 -8 15 -35 38 -59 52 -38 20 -61 25 -140 27 -52 1 -106 -1 -120 -6z"/>
<path d="M3345 6822 c-81 -50 -168 -187 -181 -283 -11 -85 -11 -85 383 -318
197 -117 363 -213 368 -214 14 -3 7 182 -12 273 -41 204 -148 292 -298 246
l-40 -12 60 -7 c135 -17 199 -84 199 -206 0 -60 -27 -181 -40 -181 -6 0 -497
289 -507 299 -4 4 13 21 38 39 124 88 200 322 121 374 -19 13 -60 8 -91 -10z"/>
<path d="M5066 6312 c-3 -3 -6 -342 -6 -753 l0 -748 -52 24 c-198 90 -518 18
-518 -116 0 -35 69 -93 136 -115 46 -15 86 -19 179 -19 142 1 213 23 264 81
l31 35 0 275 0 275 23 -6 c115 -34 214 -110 257 -199 30 -61 32 -72 28 -140
-4 -54 -13 -90 -37 -141 -17 -37 -30 -70 -28 -72 10 -9 92 95 118 150 35 74
39 163 10 242 -17 49 -17 50 4 85 67 108 58 226 -25 339 l-22 29 26 35 c65 85
70 183 17 292 -40 81 -111 158 -227 246 -97 74 -123 107 -133 168 -6 31 -30
49 -45 33z m125 -331 c215 -74 294 -197 235 -368 l-18 -53 -60 53 c-190 164
-222 211 -241 350 -7 44 2 46 84 18z m37 -426 c184 -58 258 -170 221 -333
l-12 -49 -91 91 c-50 50 -115 110 -144 134 -54 45 -84 92 -95 150 -6 29 -4 32
18 32 13 0 59 -11 103 -25z"/>
<path d="M2442 5719 c-158 -31 -272 -150 -303 -313 -21 -113 24 -324 100 -473
140 -276 442 -529 835 -698 70 -31 130 -54 132 -52 2 1 -54 43 -123 93 -322
227 -576 463 -660 612 -61 108 -85 201 -87 327 -1 130 15 190 74 264 78 98
204 131 315 81 l50 -22 -50 -13 c-59 -15 -85 -44 -85 -94 0 -72 68 -142 157
-162 44 -10 55 -10 89 7 55 27 69 61 54 127 -55 232 -260 363 -498 316z"/>
<path d="M3619 5436 c-117 -31 -216 -158 -240 -308 -20 -124 29 -335 121 -519
68 -134 183 -313 306 -475 l24 -31 -28 -39 c-99 -137 -218 -364 -286 -547
-187 -502 -105 -941 228 -1217 345 -285 764 -316 1234 -89 57 28 106 49 108
47 11 -11 64 -141 79 -192 49 -167 -26 -307 -209 -396 -123 -60 -197 -54 -282
23 -55 48 -75 57 -137 57 -62 0 -108 -25 -144 -79 -60 -89 -26 -208 71 -252
58 -26 104 -24 168 10 31 17 91 36 141 45 281 53 483 170 559 324 28 56 34 79
36 153 5 110 -13 182 -80 321 l-51 108 49 52 c148 157 218 335 218 553 0 136
-15 208 -67 313 -38 80 -172 219 -259 270 -239 141 -541 168 -751 67 l-52 -24
-25 32 c-14 17 -67 83 -117 145 -51 62 -93 117 -93 122 0 6 16 63 35 128 101
345 129 663 76 879 -65 265 -246 467 -462 518 -76 18 -108 18 -170 1z m144
-192 c202 -102 296 -323 253 -599 -17 -116 -52 -241 -94 -340 l-30 -69 -72
109 c-80 123 -198 357 -230 454 -49 156 -51 289 -6 379 14 28 36 58 48 66 29
21 90 20 131 0z m421 -1581 l85 -126 -53 -61 c-178 -203 -260 -462 -215 -678
30 -147 141 -299 263 -358 69 -34 193 -57 250 -46 l39 7 -64 32 c-146 74 -250
169 -301 276 -81 170 -29 405 127 568 33 35 65 63 72 63 17 0 613 -913 613
-938 0 -14 -129 -94 -214 -132 -173 -79 -355 -95 -501 -46 -223 76 -387 254
-467 506 -19 61 -23 97 -23 195 0 146 7 171 119 422 46 104 105 245 132 315
27 71 50 128 51 128 2 0 41 -57 87 -127z m673 -208 c149 -28 290 -120 352
-229 85 -148 82 -389 -8 -581 -57 -121 -55 -121 -136 8 -99 157 -279 416 -412
596 -63 84 -117 159 -119 166 -4 8 16 18 58 29 116 29 159 31 265 11z"/>
<path d="M1882 5244 c-26 -18 -52 -65 -52 -94 0 -55 57 -110 115 -110 52 0 89
31 108 92 9 28 -12 86 -40 108 -31 24 -99 27 -131 4z"/>
<path d="M6109 4325 c-90 -124 -165 -225 -168 -225 -3 0 -16 18 -28 39 -40 70
-149 144 -232 157 -78 12 -114 -42 -77 -114 39 -76 183 -172 258 -172 50 0 65
16 198 200 61 85 116 156 120 158 7 3 164 -106 378 -263 3 -3 -332 -464 -338
-465 -3 0 -12 15 -19 33 -21 47 -98 117 -172 157 -51 27 -76 34 -122 35 -47 0
-61 -4 -73 -19 -62 -86 124 -284 285 -303 45 -5 51 -3 84 28 32 31 501 669
495 674 -13 10 -406 293 -415 298 -7 5 -70 -74 -174 -218z m384 -19 c75 -55
137 -102 137 -106 0 -4 -8 -14 -17 -22 -17 -14 -33 -4 -204 121 -182 133 -186
136 -172 158 l15 23 52 -38 c28 -20 113 -82 189 -136z"/>
<path d="M4940 4533 c0 -5 92 -94 205 -197 l206 -188 -103 -110 c-140 -151
-171 -188 -164 -195 4 -4 27 13 52 38 43 42 45 42 39 16 -9 -35 17 -77 47 -77
61 0 182 99 214 175 21 52 17 81 -17 120 -29 33 -30 37 -15 54 16 18 22 41 9
41 -4 0 -16 -9 -28 -20 l-22 -20 -198 182 c-184 170 -225 203 -225 181z m478
-445 c31 -31 0 -108 -70 -174 -98 -94 -173 -97 -149 -7 23 85 116 174 202 192
3 0 10 -4 17 -11z"/>
<path d="M2456 4062 c-46 -93 -99 -195 -116 -227 -18 -32 -79 -153 -136 -268
l-105 -209 -34 45 c-96 126 -355 224 -455 172 -57 -30 -65 -78 -22 -146 72
-114 252 -209 393 -209 89 0 96 8 280 373 91 181 172 333 180 338 24 15 32 11
95 -56 154 -160 137 -312 -51 -455 l-30 -22 35 7 c77 16 165 87 196 160 25 58
22 181 -6 270 -12 39 -45 116 -72 173 -50 103 -55 129 -37 201 2 8 -4 17 -13
19 -13 2 -36 -34 -102 -166z"/>
<path d="M2843 3719 c-8 -8 43 -119 177 -392 l188 -382 -67 -6 c-106 -11 -192
-51 -274 -128 -44 -41 -67 -80 -67 -114 0 -17 -10 -28 -40 -43 -30 -14 -37
-23 -31 -33 8 -13 15 -12 49 3 34 16 45 16 77 6 47 -15 126 -7 196 20 113 45
219 140 219 196 0 18 10 28 45 43 25 11 45 24 45 30 0 19 -19 21 -54 4 -20 -9
-38 -14 -41 -12 -3 3 -95 188 -205 412 -110 224 -201 407 -203 407 -2 0 -8 -5
-14 -11z"/>
<path d="M6029 3084 c-88 -27 -176 -130 -194 -227 -15 -79 52 -117 138 -79 49
22 74 51 82 98 7 39 -15 65 -62 74 l-38 6 35 19 c78 41 177 15 237 -63 79
-104 64 -304 -34 -452 -68 -103 -273 -287 -467 -419 -50 -34 -85 -61 -78 -61
20 0 172 71 259 120 244 141 408 319 481 522 22 61 26 91 27 178 0 98 -2 108
-30 159 -16 30 -48 67 -69 83 -76 55 -191 72 -287 42z"/>
<path d="M6525 3018 c-74 -43 -49 -151 35 -151 85 0 109 111 33 151 -27 15
-42 15 -68 0z"/>
<path d="M6505 2735 c-50 -49 -15 -135 55 -135 41 0 80 39 80 80 0 41 -39 80
-80 80 -19 0 -40 -9 -55 -25z"/>
<path d="M2676 2467 c-13 -23 -95 -257 -182 -519 l-158 -477 -41 40 c-46 47
-176 112 -253 128 -68 14 -172 14 -209 0 -41 -15 -73 -49 -73 -76 0 -130 307
-283 486 -243 89 20 90 21 235 459 72 218 133 398 135 400 3 4 744 -237 744
-242 0 -1 -49 -151 -110 -332 -60 -182 -110 -332 -110 -334 0 -2 -19 15 -42
38 -84 83 -263 147 -388 138 -158 -10 -192 -98 -78 -203 105 -97 320 -158 437
-124 67 19 73 32 202 419 67 201 125 370 129 375 5 4 179 -49 388 -118 l380
-127 -23 -72 c-60 -186 -158 -482 -161 -486 -3 -3 -23 13 -47 35 -54 52 -84
70 -162 99 -131 50 -264 54 -328 11 -26 -18 -33 -29 -35 -64 -3 -38 1 -46 44
-92 134 -143 459 -203 527 -97 7 12 78 213 156 447 98 292 152 438 173 468 21
31 26 43 16 47 -7 3 -376 126 -821 274 l-807 269 -24 -41z m748 -307 c4 -5 -1
-34 -11 -67 -16 -46 -24 -57 -39 -55 -19 4 -716 233 -723 238 -1 1 7 32 18 67
l22 65 362 -120 c199 -66 366 -124 371 -128z m436 -141 c201 -67 368 -125 373
-128 8 -8 -32 -133 -41 -127 -4 2 -167 56 -362 121 -195 65 -365 121 -377 126
l-22 8 22 61 c12 33 26 60 32 60 5 0 174 -55 375 -121z"/>
</g>
</svg>
