<svg width="191" height="53" viewBox="0 0 191 53" fill="none" xmlns="http://www.w3.org/2000/svg">
<rect x="118.47" y="0.681335" width="6.62069" height="52.1379" rx="3.31034" fill="white"/>
<rect x="105.352" y="13.4635" width="6.62069" height="29.9372" rx="3.31034" fill="white"/>
<rect x="79.1152" y="9.76337" width="6.62069" height="37.0011" rx="3.31034" fill="white"/>
<rect x="92.4795" y="22.1985" width="6.62069" height="13.2414" rx="3.31034" fill="white"/>
<rect x="65.9958" y="16.1544" width="6.62069" height="24.5553" rx="3.31034" fill="white"/>
<rect x="52.7549" y="0.681335" width="6.62069" height="52.1379" rx="3.31034" fill="white"/>
<rect x="39.6365" y="13.4635" width="6.62069" height="29.9372" rx="3.31034" fill="white"/>
<rect x="13.3997" y="9.76337" width="6.62069" height="37.0011" rx="3.31034" fill="white"/>
<rect x="26.7634" y="22.1985" width="6.62069" height="13.2414" rx="3.31034" fill="white"/>
<rect x="0.280762" y="16.1544" width="6.62069" height="24.5553" rx="3.31034" fill="white"/>
<rect x="184.186" y="0.681335" width="6.62069" height="52.1379" rx="3.31034" fill="white"/>
<rect x="171.068" y="13.4635" width="6.62069" height="29.9372" rx="3.31034" fill="white"/>
<rect x="144.831" y="9.76337" width="6.62069" height="37.0011" rx="3.31034" fill="white"/>
<rect x="158.195" y="22.1985" width="6.62069" height="13.2414" rx="3.31034" fill="white"/>
<rect x="131.712" y="16.1544" width="6.62069" height="24.5553" rx="3.31034" fill="white"/>
</svg>
