<svg width="211" height="157" viewBox="0 0 211 157" fill="none" xmlns="http://www.w3.org/2000/svg">
<path d="M205.11 26.9844C203.16 16.1945 193.866 8.33679 183.081 5.88367C166.941 2.45312 137.072 0 104.754 0C72.456 0 42.1082 2.45312 25.9495 5.88367C15.1834 8.33679 5.87067 15.6962 3.92015 26.9844C1.95052 39.25 0 56.4219 0 78.5C0 100.578 1.95052 117.75 4.39823 130.016C6.36786 140.806 15.6615 148.663 26.4276 151.116C43.5615 154.547 72.934 157 105.251 157C137.569 157 166.941 154.547 184.075 151.116C194.841 148.663 204.135 141.304 206.105 130.016C208.055 117.75 210.503 100.08 211 78.5C210.006 56.4219 207.558 39.25 205.11 26.9844ZM78.3266 112.844V44.1562L138.047 78.5L78.3266 112.844Z" fill="white"/>
</svg>
